<svg width="32" height="32" viewBox="0 0 32 32" fill="none" xmlns="http://www.w3.org/2000/svg">
<rect width="32" height="32" rx="16" fill="#60A5FA"/>
<path d="M18.206 13.4545V14.8182H14.2642V13.4545H18.206ZM15.1591 11.8864H16.9744V17.9886C16.9744 18.1562 17 18.2869 17.0511 18.3807C17.1023 18.4716 17.1733 18.5355 17.2642 18.5724C17.358 18.6094 17.4659 18.6278 17.5881 18.6278C17.6733 18.6278 17.7585 18.6207 17.8438 18.6065C17.929 18.5895 17.9943 18.5767 18.0398 18.5682L18.3253 19.919C18.2344 19.9474 18.1065 19.9801 17.9418 20.017C17.777 20.0568 17.5767 20.081 17.3409 20.0895C16.9034 20.1065 16.5199 20.0483 16.1903 19.9148C15.8636 19.7812 15.6094 19.5739 15.4276 19.2926C15.2457 19.0114 15.1563 18.6562 15.1591 18.2273V11.8864Z" fill="white"/>
</svg>
