<svg width="32" height="32" viewBox="0 0 32 32" fill="none" xmlns="http://www.w3.org/2000/svg">
<rect width="32" height="32" rx="16" fill="#DB2777"/>
<path d="M16.4389 22.5142C15.5327 22.5142 14.7259 22.3906 14.0185 22.1435C13.3111 21.8991 12.7131 21.5398 12.2244 21.0653C11.7358 20.5938 11.3636 20.017 11.108 19.3352C10.8523 18.6534 10.7244 17.8778 10.7244 17.0085C10.7244 16.1506 10.8523 15.3722 11.108 14.6733C11.3665 13.9744 11.7429 13.375 12.2372 12.875C12.7315 12.3722 13.3352 11.9858 14.0483 11.7159C14.7642 11.446 15.5795 11.3111 16.4943 11.3111C17.3409 11.3111 18.0966 11.4347 18.7614 11.6818C19.429 11.929 19.9943 12.2812 20.4574 12.7386C20.9233 13.1932 21.277 13.7344 21.5185 14.3622C21.7628 14.9872 21.8835 15.679 21.8807 16.4375C21.8835 16.9602 21.8381 17.4403 21.7443 17.8778C21.6506 18.3153 21.5028 18.6974 21.3011 19.0241C21.1023 19.348 20.8409 19.6051 20.517 19.7955C20.1932 19.983 19.8011 20.0895 19.3409 20.1151C19.0114 20.1406 18.7443 20.1165 18.5398 20.0426C18.3352 19.9687 18.179 19.8594 18.071 19.7145C17.9659 19.5668 17.8977 19.3949 17.8665 19.1989H17.8153C17.7472 19.3693 17.6136 19.5241 17.4148 19.6634C17.2159 19.7997 16.973 19.9062 16.6861 19.983C16.402 20.0568 16.0994 20.0838 15.7784 20.0639C15.4432 20.044 15.125 19.9659 14.8239 19.8295C14.5256 19.6932 14.2599 19.4957 14.027 19.2372C13.7969 18.9787 13.6151 18.6591 13.4815 18.2784C13.3509 17.8977 13.2841 17.4574 13.2812 16.9574C13.2841 16.4631 13.3537 16.0327 13.4901 15.6662C13.6293 15.2997 13.8125 14.9915 14.0398 14.7415C14.2699 14.4915 14.5256 14.2955 14.8068 14.1534C15.0881 14.0114 15.3707 13.9205 15.6548 13.8807C15.9759 13.8324 16.2798 13.8324 16.5668 13.8807C16.8537 13.929 17.0952 14.0071 17.2912 14.1151C17.4901 14.223 17.6136 14.3395 17.6619 14.4645H17.7216V13.9872H19.0554V18.1463C19.0582 18.3423 19.1023 18.4943 19.1875 18.6023C19.2727 18.7102 19.3878 18.7642 19.5327 18.7642C19.7287 18.7642 19.892 18.6776 20.0227 18.5043C20.1563 18.331 20.2557 18.0653 20.321 17.7074C20.3892 17.3494 20.4233 16.8935 20.4233 16.3395C20.4233 15.8054 20.3523 15.3366 20.2102 14.9332C20.071 14.527 19.875 14.1818 19.6222 13.8977C19.3722 13.6108 19.081 13.3778 18.7486 13.1989C18.4162 13.0199 18.0554 12.8892 17.6662 12.8068C17.2798 12.7244 16.8821 12.6832 16.473 12.6832C15.7656 12.6832 15.1477 12.7912 14.6193 13.0071C14.0909 13.2202 13.6506 13.5199 13.2983 13.9062C12.946 14.2926 12.6818 14.7457 12.5057 15.2656C12.3324 15.7827 12.2443 16.3466 12.2415 16.9574C12.2443 17.6307 12.3381 18.2273 12.5227 18.7472C12.7102 19.2642 12.9858 19.6989 13.3494 20.0511C13.7131 20.4034 14.1619 20.6705 14.696 20.8523C15.2301 21.0341 15.8438 21.125 16.5369 21.125C16.8636 21.125 17.1832 21.1009 17.4957 21.0526C17.8082 21.0071 18.0909 20.9503 18.3438 20.8821C18.5966 20.8168 18.7997 20.7528 18.9531 20.6903L19.375 21.9261C19.196 22.0284 18.9531 22.1236 18.6463 22.2116C18.3423 22.3026 17.9986 22.375 17.6151 22.429C17.2344 22.4858 16.8423 22.5142 16.4389 22.5142ZM16.2429 18.6619C16.5895 18.6619 16.8651 18.5952 17.0696 18.4616C17.277 18.3281 17.4247 18.1307 17.5128 17.8693C17.6037 17.6051 17.6463 17.2798 17.6406 16.8935C17.6378 16.5526 17.5938 16.2642 17.5085 16.0284C17.4261 15.7898 17.2827 15.6094 17.0781 15.4872C16.8764 15.3622 16.5952 15.2997 16.2344 15.2997C15.919 15.2997 15.6506 15.3665 15.429 15.5C15.2102 15.6335 15.0426 15.821 14.9261 16.0625C14.8125 16.3011 14.7543 16.5824 14.7514 16.9062C14.7543 17.2074 14.8026 17.4929 14.8963 17.7628C14.9901 18.0298 15.1449 18.2472 15.3608 18.4148C15.5767 18.5795 15.8707 18.6619 16.2429 18.6619Z" fill="white"/>
</svg>
