<svg width="32" height="32" viewBox="0 0 32 32" fill="none" xmlns="http://www.w3.org/2000/svg">
<rect width="32" height="32" rx="16" fill="#2563EB"/>
<path d="M18.2443 13.4545V14.8182H14.2045V13.4545H18.2443ZM15.1293 20V12.9815C15.1293 12.5071 15.2216 12.1136 15.4062 11.8011C15.5938 11.4886 15.8494 11.2543 16.1733 11.098C16.4972 10.9418 16.8651 10.8636 17.277 10.8636C17.5554 10.8636 17.8097 10.8849 18.0398 10.9276C18.2727 10.9702 18.446 11.0085 18.5597 11.0426L18.2358 12.4062C18.1648 12.3835 18.0767 12.3622 17.9716 12.3423C17.8693 12.3224 17.7642 12.3125 17.6562 12.3125C17.3892 12.3125 17.2031 12.375 17.098 12.5C16.9929 12.6222 16.9403 12.794 16.9403 13.0156V20H15.1293Z" fill="white"/>
</svg>
