<svg width="24" height="24" viewBox="0 0 24 24" fill="none" xmlns="http://www.w3.org/2000/svg">
<path d="M19.8837 7.95349H3.97673C3.42766 7.95349 2.98254 8.3986 2.98254 8.94768V10.936C2.98254 11.4851 3.42766 11.9302 3.97673 11.9302H19.8837C20.4328 11.9302 20.8779 11.4851 20.8779 10.936V8.94768C20.8779 8.3986 20.4328 7.95349 19.8837 7.95349Z" stroke="#16A34A" stroke-width="1.98837" stroke-linecap="round" stroke-linejoin="round"/>
<path d="M11.9302 7.95349V20.8779" stroke="#16A34A" stroke-width="1.98837" stroke-linecap="round" stroke-linejoin="round"/>
<path d="M18.8896 11.9303V18.8896C18.8896 19.4169 18.6801 19.9227 18.3072 20.2956C17.9343 20.6685 17.4285 20.878 16.9012 20.878H6.95932C6.43197 20.878 5.92622 20.6685 5.55333 20.2956C5.18044 19.9227 4.97095 19.4169 4.97095 18.8896V11.9303" stroke="#16A34A" stroke-width="1.98837" stroke-linecap="round" stroke-linejoin="round"/>
<path d="M7.45641 7.95342C6.79723 7.95342 6.16504 7.69156 5.69892 7.22544C5.23281 6.75933 4.97095 6.12714 4.97095 5.46796C4.97095 4.80877 5.23281 4.17658 5.69892 3.71047C6.16504 3.24435 6.79723 2.98249 7.45641 2.98249C8.41549 2.96578 9.35533 3.43113 10.1534 4.31784C10.9514 5.20456 11.5706 6.47149 11.9302 7.95342C12.2899 6.47149 12.9091 5.20456 13.7071 4.31784C14.5052 3.43113 15.445 2.96578 16.4041 2.98249C17.0633 2.98249 17.6955 3.24435 18.1616 3.71047C18.6277 4.17658 18.8896 4.80877 18.8896 5.46796C18.8896 6.12714 18.6277 6.75933 18.1616 7.22544C17.6955 7.69156 17.0633 7.95342 16.4041 7.95342" stroke="#16A34A" stroke-width="1.98837" stroke-linecap="round" stroke-linejoin="round"/>
</svg>
