<svg width="24" height="24" viewBox="0 0 24 24" fill="none" xmlns="http://www.w3.org/2000/svg">
<g clip-path="url(#clip0_41_1109)">
<path d="M21.8199 15.4201L19.3199 19.7501C18.8299 20.6101 17.9199 21.0601 16.9999 21.0001H14.9999V23.0001L12.4999 18.5001L14.9999 14.0001V16.0001H17.8199L15.5999 12.1501L19.9299 9.65006L21.7299 12.7701C22.2499 13.5401 22.3199 14.5701 21.8199 15.4201ZM9.20991 3.06006H14.2099C15.1899 3.06006 16.0399 3.63006 16.4499 4.45006L17.4499 6.19006L19.1799 5.19006L16.5399 9.60006L11.3899 9.69006L13.1199 8.69006L11.7099 6.24006L9.49991 10.0901L5.15991 7.59006L6.95991 4.47006C7.36991 3.64006 8.21991 3.06006 9.20991 3.06006ZM5.04991 19.7601L2.54991 15.4301C2.05991 14.5801 2.12991 13.5601 2.63991 12.7901L3.63991 11.0601L1.90991 10.0601L7.04991 10.1401L9.69991 14.5601L7.96991 13.5601L6.55991 16.0001H10.9999V21.0001H7.39991C6.93142 21.034 6.46281 20.9357 6.04738 20.7165C5.63194 20.4973 5.28635 20.1659 5.04991 19.7601Z" fill="black"/>
<path d="M21.8199 15.4201L19.3199 19.7501C18.8299 20.6101 17.9199 21.0601 16.9999 21.0001H14.9999V23.0001L12.4999 18.5001L14.9999 14.0001V16.0001H17.8199L15.5999 12.1501L19.9299 9.65006L21.7299 12.7701C22.2499 13.5401 22.3199 14.5701 21.8199 15.4201ZM9.20991 3.06006H14.2099C15.1899 3.06006 16.0399 3.63006 16.4499 4.45006L17.4499 6.19006L19.1799 5.19006L16.5399 9.60006L11.3899 9.69006L13.1199 8.69006L11.7099 6.24006L9.49991 10.0901L5.15991 7.59006L6.95991 4.47006C7.36991 3.64006 8.21991 3.06006 9.20991 3.06006ZM5.04991 19.7601L2.54991 15.4301C2.05991 14.5801 2.12991 13.5601 2.63991 12.7901L3.63991 11.0601L1.90991 10.0601L7.04991 10.1401L9.69991 14.5601L7.96991 13.5601L6.55991 16.0001H10.9999V21.0001H7.39991C6.93142 21.034 6.46281 20.9357 6.04738 20.7165C5.63194 20.4973 5.28635 20.1659 5.04991 19.7601Z" fill="#DCFCE7"/>
</g>
<defs>
<clipPath id="clip0_41_1109">
<rect width="24" height="24" fill="white"/>
</clipPath>
</defs>
</svg>
